<?xml version="1.0" standalone="no"?>
<!DOCTYPE svg PUBLIC "-//W3C//DTD SVG 20010904//EN"
 "http://www.w3.org/TR/2001/REC-SVG-20010904/DTD/svg10.dtd">
<svg version="1.0" xmlns="http://www.w3.org/2000/svg"
 width="206.000000pt" height="206.000000pt" viewBox="0 0 206.000000 206.000000"
 preserveAspectRatio="xMidYMid meet">
<metadata>
Created by potrace 1.11, written by Peter Selinger 2001-2013
</metadata>
<g transform="translate(0.000000,206.000000) scale(0.100000,-0.100000)"
fill="#000000" stroke="none">
<path d="M412 1550 c-101 -27 -165 -64 -243 -140 -159 -156 -205 -391 -118
-598 57 -133 177 -245 314 -292 79 -27 99 -31 175 -31 152 1 280 52 386 156
35 34 64 69 64 76 0 8 -13 21 -29 30 l-29 17 -64 -63 c-72 -70 -119 -98 -205
-120 -160 -42 -326 5 -443 124 -175 179 -174 463 2 639 181 182 463 184 647 4
65 -64 119 -164 128 -237 l5 -45 -48 -1 c-27 0 -171 0 -321 1 l-272 1 1 -41
c0 -39 1 -40 37 -41 44 -1 661 -1 679 0 17 1 9 115 -14 191 -82 279 -371 443
-652 370z"/>
<path d="M1196 1035 c0 -294 3 -538 6 -541 3 -3 21 -6 39 -7 l34 -2 1 543 0
542 -40 0 -41 0 1 -535z"/>
<path d="M1727 1302 c-147 -147 -267 -270 -267 -274 0 -10 529 -538 539 -538
4 0 18 11 31 25 l24 26 -242 242 -243 243 242 243 242 242 -29 30 -29 29 -268
-268z"/>
</g>
</svg>
